<svg xmlns="http://www.w3.org/2000/svg" viewBox="0 0 200 160" fill="currentColor">
  <!-- Stylized A as inverted teardrop -->
  <path d="M60 148 C60 148, 28 80, 58 30 C68 14, 82 14, 92 30 C100 44, 100 60, 96 76 L84 76 C88 62, 88 48, 82 36 C78 28, 72 28, 68 36 C52 68, 60 120, 60 148 Z"/>
  <!-- Stylized B -->
  <path d="M96 20 L96 148 L108 148 L108 88 C108 88, 140 88, 148 104 C156 120, 148 140, 128 148 L140 148 C158 136, 164 116, 152 96 C146 86, 136 82, 128 80 C144 78, 158 68, 156 48 C154 28, 136 20, 116 20 Z M108 32 L120 32 C136 32, 146 40, 146 52 C146 64, 136 74, 120 76 L108 76 Z"/>
</svg>
